<?xml version="1.0" encoding="UTF-8"?>
<svg width="32px" height="31px" viewBox="0 0 32 31" version="1.1" xmlns="http://www.w3.org/2000/svg" xmlns:xlink="http://www.w3.org/1999/xlink">
    <!-- Generator: Sketch 63.1 (92452) - https://sketch.com -->
    <title>ABC_suggest widget_books read</title>
    <desc>Created with Sketch.</desc>
    <g id="Beta" stroke="none" stroke-width="1" fill="none" fill-rule="evenodd">
        <g id="Learn-More_Modal-(Desktop)" transform="translate(-361.000000, -100.000000)" fill="#36C2B4" fill-rule="nonzero">
            <g id="Books-we'v-read" transform="translate(321.000000, 93.000000)">
                <g id="ABC_suggest-widget_books-read" transform="translate(55.428571, 21.928571) rotate(-90.000000) translate(-55.428571, -21.928571) translate(39.928571, 5.928571)">
                    <path d="M0.00350803299,4 L1.8437368,4.60125173 C4.08473892,5.30517021 5.08999016,5.27008206 7.6649306,4.48311805 L7.6649306,4.48311805 L9.13656709,4.03335038 L9.14181372,5.57217376 L9.14053258,31.3617846 C9.14049402,31.6379173 8.91664042,31.8617598 8.64050774,31.8617846 L8.64050774,31.8617846 L0.5,31.8617846 L0.5,31.8617846 L0.410062515,31.8537806 C0.176819331,31.8114152 -2.39070296e-05,31.6072445 6.29542042e-05,31.3617846 L6.29542042e-05,31.3617846 L0.00350803299,4 Z M6.856,28.433 L2.282,28.433 L2.28285414,29.5760703 L6.85656843,29.5760703 L6.856,28.433 Z M6.859997,7.07435603 L6.43137249,7.17131999 C5.00946743,7.46617901 3.89230692,7.46054774 2.52707012,7.15525938 L2.52707012,7.15525938 L2.28056843,7.09607032 L2.282,26.147 L6.856,26.147 L6.859997,7.07435603 Z" id="Combined-Shape" transform="translate(4.570907, 17.930892) scale(1, -1) translate(-4.570907, -17.930892) "></path>
                    <path d="M10.2989396,0.709643969 L12.1391684,1.31089569 C14.3801705,2.01481418 15.3854217,1.97972603 17.9603622,1.19276202 L17.9603622,1.19276202 L19.4319987,0.742994351 L19.4372453,2.28181773 L19.4359642,28.0714286 C19.4359256,28.3475612 19.212072,28.5714037 18.9359393,28.5714286 L18.9359393,28.5714286 L10.7954316,28.5714286 L10.7954316,28.5714286 L10.7054941,28.5634245 C10.4722509,28.5210592 10.2954077,28.3168885 10.2954945,28.0714286 L10.2954945,28.0714286 L10.2989396,0.709643969 Z M17.1514316,25.142644 L12.5774316,25.142644 L12.5782857,26.2857143 L17.152,26.2857143 L17.1514316,25.142644 Z M17.1554286,3.784 L16.7268041,3.88096396 C15.304899,4.17582298 14.1877385,4.17019171 12.8225017,3.86490335 L12.8225017,3.86490335 L12.576,3.80571429 L12.5774316,22.856644 L17.1514316,22.856644 L17.1554286,3.784 Z" id="Combined-Shape"></path>
                    <path d="M21.003508,4 L22.8437368,4.60125173 C25.0847389,5.30517021 26.0899902,5.27008206 28.6649306,4.48311805 L28.6649306,4.48311805 L30.1365671,4.03335038 L30.1418137,5.57217376 L30.1405326,31.3617846 C30.140494,31.6379173 29.9166404,31.8617598 29.6405077,31.8617846 L29.6405077,31.8617846 L21.5,31.8617846 L21.5,31.8617846 L21.4100625,31.8537806 C21.1768193,31.8114152 20.9999761,31.6072445 21.000063,31.3617846 L21.000063,31.3617846 L21.003508,4 Z M27.856,28.433 L23.282,28.433 L23.2828541,29.5760703 L27.8565684,29.5760703 L27.856,28.433 Z M27.859997,7.07435603 L27.4313725,7.17131999 C26.0094674,7.46617901 24.8923069,7.46054774 23.5270701,7.15525938 L23.5270701,7.15525938 L23.2805684,7.09607032 L23.282,26.147 L27.856,26.147 L27.859997,7.07435603 Z" id="Combined-Shape"></path>
                </g>
            </g>
        </g>
    </g>
</svg>