<svg xmlns="http://www.w3.org/2000/svg" xmlns:xlink="http://www.w3.org/1999/xlink" width="281.019" height="98.692" viewBox="0 0 281.019 98.692">
  <defs>
    <style>
      .cls-1 {
        fill: url(#linear-gradient);
      }

      .cls-2 {
        fill: #013099;
      }

      .cls-3, .cls-8 {
        fill: #fff;
      }

      .cls-3 {
        opacity: 0.16;
      }

      .cls-4 {
        fill: #002f97;
        opacity: 0.9;
      }

      .cls-5, .cls-7 {
        fill: none;
        stroke: #013199;
      }

      .cls-6 {
        fill: #013199;
      }

      .cls-7 {
        stroke-width: 0.5px;
      }

      .cls-8 {
        opacity: 0.08;
      }

      .cls-9 {
        fill: #2153b6;
      }
    </style>
    <linearGradient id="linear-gradient" y1="0.536" x2="1" y2="0.536" gradientUnits="objectBoundingBox">
      <stop offset="0" stop-color="#0e3eb3"/>
      <stop offset="1" stop-color="#0d4aae"/>
    </linearGradient>
  </defs>
  <g id="组_956" data-name="组 956" transform="translate(-1320 -57.114)">
    <path id="路径_1152" data-name="路径 1152" class="cls-1" d="M12,0H269a12,12,0,0,1,12,12V73a12,12,0,0,1-12,12H12A12,12,0,0,1,0,73V12A12,12,0,0,1,12,0Z" transform="translate(1320 69)"/>
    <path id="联合_9" data-name="联合 9" class="cls-2" d="M-1977.276,56.632v-18.8H-1995l12.12-13.768h-8.475l11.579-13.151h-8.981L-1974.749-5l13.05,15.913h-8.191l10.793,13.151h-7.656l11.3,13.768h-17.68v18.8Z" transform="translate(3363.842 85.369)"/>
    <path id="联合_11" data-name="联合 11" class="cls-2" d="M-1985.281,23.8V15.018H-1995l6.646-6.435H-1993l6.349-6.146h-4.925L-1983.9-5l7.156,7.437h-4.491l5.918,6.146h-4.2l6.194,6.435h-9.695V23.8Z" transform="translate(3396.157 123.001)"/>
    <path id="联合_10" data-name="联合 10" class="cls-2" d="M-1988.617,17.194v-6.77H-1995l4.364-4.958h-3.052l4.17-4.736h-3.234l5.045-5.73,4.7,5.73h-2.95l3.887,4.736h-2.757l4.068,4.958h-6.367v6.77Z" transform="translate(3417.842 131.806)"/>
    <path id="联合_12" data-name="联合 12" class="cls-2" d="M-1988.617,17.194v-6.77H-1995l4.364-4.958h-3.052l4.17-4.736h-3.234l5.045-5.73,4.7,5.73h-2.95l3.887,4.736h-2.757l4.068,4.958h-6.367v6.77Z" transform="translate(3509.842 123.806)"/>
    <path id="联合_13" data-name="联合 13" class="cls-2" d="M-1991.993,5.458V2.268H-1995l2.057-2.336h-1.438l1.965-2.232h-1.524l2.377-2.7,2.215,2.7h-1.39l1.831,2.232h-1.3l1.917,2.336h-3v3.19Z" transform="translate(3545.842 141.542)"/>
    <path id="免费_1_" data-name="免费 (1)" class="cls-3" d="M34.9,0A34.894,34.894,0,0,0,5.869,54.263a2.276,2.276,0,0,0,3.784-2.531,30.343,30.343,0,1,1,8.368,8.385A2.276,2.276,0,1,0,15.488,63.9,34.9,34.9,0,1,0,34.9,0ZM22.036,36.473q-1.45,0-1.452-1.265V31.763a1.265,1.265,0,0,1,1.452-1.41h9.459a18.551,18.551,0,0,1-1.721,6.119Zm13.712-6.119h11.99a2.072,2.072,0,0,1,1.225.311,1.293,1.293,0,0,1,.373,1.1v3.693c0,.677-.53,1.017-1.6,1.017H34.379A36.7,36.7,0,0,0,35.748,30.353ZM22.8,44.833a26.652,26.652,0,0,1-7.323,3.174V51.6a27.655,27.655,0,0,0,3.153-.478,20.555,20.555,0,0,0,7.115-3.381A27.606,27.606,0,0,0,32.47,40.31h3.112v7.054a3.8,3.8,0,0,0,1.285,3.174,4.6,4.6,0,0,0,2.966.933h14V47.529H41.162a1.87,1.87,0,0,1-1.2-.311c-.235-.194-.344-.614-.332-1.265l.02-5.643h9.461a4.279,4.279,0,0,0,3.07-1.141A3.931,3.931,0,0,0,53.194,36.2V30.623a3.983,3.983,0,0,0-1.12-3.071,4.59,4.59,0,0,0-2.136-.974l1.1-2.531a4.815,4.815,0,0,0,.478-1.847,3.593,3.593,0,0,0-1.2-2.655,4.539,4.539,0,0,0-3.361-1.224H24.5l.6-2.053h-3.9a15.038,15.038,0,0,1-2.177,4.314,5.32,5.32,0,0,1-3.155,2.033v3.963a12.933,12.933,0,0,0,3.963-1.765,13.09,13.09,0,0,0,2.718-2.655h22.8a4.18,4.18,0,0,1,1.536.167.766.766,0,0,1,.476.706,3.858,3.858,0,0,1-.414,1.39l-.913,2.012H22.222q-3.13,0-4.294,1.079A4.36,4.36,0,0,0,16.7,30.83V36q0,3.216,2.655,4.107a9.746,9.746,0,0,0,2.511.206h5.622A22.033,22.033,0,0,1,22.8,44.833Z" transform="matrix(0.788, 0.616, -0.616, 0.788, 1452.066, 57.114)"/>
    <path id="路径_1124" data-name="路径 1124" class="cls-4" d="M3244,141.02s39.974-10.205,61.712,8.752,77.88,13.531,105.539,3.209,50.156,8.073,69.741,8.337,40.884-7.351,43.981-22.1c.1-.128,0,17.648,0,17.648s-.68,10.885-10.547,12.059-187.43,3.4-255.037.317c-14.981-.121-15.39-12.65-15.39-12.65Z" transform="translate(-1924 -15)"/>
    <path id="联合_5" data-name="联合 5" class="cls-2" d="M-1990.72,5.6V2.369H-1995L-1992.074,0h-2.047l2.8-2.263h-2.169L-1990.11-5l3.152,2.738h-1.978L-1986.33,0h-1.849l2.728,2.369h-4.27V5.6Z" transform="translate(3328.72 119.397)"/>
    <path id="联合_6" data-name="联合 6" class="cls-2" d="M-1984.918,30.062v-10.7H-1995l6.894-7.833h-4.821l6.587-7.481h-5.109L-1983.48-5l7.425,9.053h-4.66l6.14,7.481h-4.356l6.427,7.833h-10.058v10.7Z" transform="translate(3336.842 97.938)"/>
    <path id="联合_7" data-name="联合 7" class="cls-2" d="M-1989.352,14.642V8.65H-1995l3.863-4.388h-2.7l3.69-4.191h-2.863L-1988.546-5l4.159,5.071H-1987l3.44,4.191H-1986l3.6,4.388h-5.635v5.992Z" transform="translate(3352.533 112.163)"/>
    <path id="联合_8" data-name="联合 8" class="cls-2" d="M-1990.1,12.039v-5.2h-4.9l3.351-3.806h-2.343l3.2-3.636h-2.483L-1989.4-5l3.608,4.4h-2.264l2.984,3.636h-2.117l3.123,3.806h-4.888v5.2Z" transform="translate(3315.68 113.767)"/>
    <line id="直线_44" data-name="直线 44" class="cls-5" x2="42" transform="translate(1558.5 126.5)"/>
    <line id="直线_45" data-name="直线 45" class="cls-5" y2="20" transform="translate(1565.5 126.5)"/>
    <path id="路径_1150" data-name="路径 1150" class="cls-5" d="M3520.5,163V135.258h42.459" transform="translate(-1962 -10)"/>
    <line id="直线_46" data-name="直线 46" class="cls-5" y2="20" transform="translate(1572.5 126.5)"/>
    <line id="直线_47" data-name="直线 47" class="cls-5" y2="20" transform="translate(1580.5 126.5)"/>
    <line id="直线_48" data-name="直线 48" class="cls-5" y2="20" transform="translate(1588.5 126.5)"/>
    <line id="直线_49" data-name="直线 49" class="cls-5" y2="20" transform="translate(1596.5 126.5)"/>
    <path id="减去_5" data-name="减去 5" class="cls-6" d="M-1981,7h-14V-5h14V7Zm-6-9V3h4V-2Z" transform="translate(3581 118)"/>
    <line id="直线_50" data-name="直线 50" class="cls-7" x2="5" transform="translate(1593.5 117.5)"/>
    <line id="直线_51" data-name="直线 51" class="cls-7" x2="5" transform="translate(1596 116) rotate(90)"/>
    <line id="直线_52" data-name="直线 52" class="cls-5" x2="3" transform="translate(1583.5 120.5)"/>
    <rect id="矩形_561" data-name="矩形 561" class="cls-8" width="27" height="3.08" rx="1.54" transform="translate(1567 79.92)"/>
    <rect id="矩形_563" data-name="矩形 563" class="cls-8" width="18" height="3.08" rx="1.54" transform="translate(1566 73.759)"/>
    <rect id="矩形_562" data-name="矩形 562" class="cls-8" width="10" height="3.08" rx="1.54" transform="translate(1571 76.84)"/>
    <path id="交叉_1" data-name="交叉 1" class="cls-9" d="M-1961,8.5a13.48,13.48,0,0,1,.768-4.5h25.463A13.48,13.48,0,0,1-1934,8.5,13.5,13.5,0,0,1-1947.5,22,13.5,13.5,0,0,1-1961,8.5Z" transform="translate(3359 65)"/>
  </g>
</svg>
