<svg xmlns="http://www.w3.org/2000/svg" viewBox="0 0 439.37 283.46"><defs><style>.cls-1{fill:#fff;fill-rule:evenodd;}.cls-2{fill:#039;}.cls-3{fill:#fc0;}</style></defs><title>icon-flag-eu</title><g id="图层_2" data-name="图层 2"><g id="图层_1-2" data-name="图层 1"><polygon class="cls-1" points="0 283.46 0 0 439.37 0 439.37 282.6 439.37 283.46 0 283.46 0 283.46"/><rect class="cls-2" x="1.02" y="1.09" width="436.68" height="281.7"/><g id="s"><g id="c"><path id="t" class="cls-3" d="M215.54,32.39,210.7,47.27l7.45,2.42Z"/><path class="cls-3" d="M215.54,32.39l4.84,14.88-7.45,2.42Z"/></g><g id="a"><path class="cls-3" d="M230.44,43.2H214.77V51Z"/><path class="cls-3" d="M230.44,43.2l-12.68,9.2-4.6-6.33Z"/><path class="cls-3" d="M224.75,60.7l-4.84-14.88-7.45,2.41Z"/><path class="cls-3" d="M224.75,60.7l-12.68-9.2,4.61-6.33Z"/></g><path class="cls-3" d="M200.64,43.2h15.67V51Z"/><path class="cls-3" d="M200.64,43.2l12.67,9.2,4.61-6.33Z"/><path class="cls-3" d="M206.33,60.7l4.84-14.88,7.45,2.41Z"/><path class="cls-3" d="M206.33,60.7,219,51.5l-4.6-6.33Z"/></g><path class="cls-3" d="M215.54,220.19l-4.84,14.89,7.45,2.41Z"/><path class="cls-3" d="M215.54,220.19l4.84,14.89-7.45,2.41Z"/><path class="cls-3" d="M230.44,231H214.77v7.82Z"/><path class="cls-3" d="M230.44,231l-12.68,9.2-4.6-6.34Z"/><path class="cls-3" d="M224.75,248.5l-4.84-14.88L212.46,236Z"/><path class="cls-3" d="M224.75,248.5l-12.68-9.2,4.61-6.33Z"/><path class="cls-3" d="M200.64,231h15.67v7.82Z"/><path class="cls-3" d="M200.64,231l12.67,9.2,4.61-6.34Z"/><path class="cls-3" d="M206.33,248.5l4.84-14.88,7.45,2.42Z"/><path class="cls-3" d="M206.33,248.5,219,239.3,214.4,233Z"/><g id="l"><path class="cls-3" d="M121.55,126.29l-4.84,14.89,7.45,2.41Z"/><path class="cls-3" d="M121.55,126.29l4.84,14.89L119,143.59Z"/><path class="cls-3" d="M136.45,137.1H120.79v7.83Z"/><path class="cls-3" d="M136.45,137.1l-12.67,9.2-4.6-6.33Z"/><path class="cls-3" d="M130.76,154.6l-4.84-14.88-7.45,2.42Z"/><path class="cls-3" d="M130.76,154.6l-12.67-9.2,4.6-6.33Z"/><path class="cls-3" d="M106.66,137.1h15.66v7.83Z"/><path class="cls-3" d="M106.66,137.1l12.67,9.2,4.6-6.33Z"/><path class="cls-3" d="M112.35,154.6l4.84-14.88,7.45,2.42Z"/><path class="cls-3" d="M112.35,154.6,125,145.4l-4.6-6.33Z"/><path class="cls-3" d="M159.34,73.28,172,64.08l-4.6-6.33Z"/><path class="cls-3" d="M159.34,73.28l4.84-14.88,7.45,2.42Z"/><path class="cls-3" d="M153.65,55.78,166.32,65l4.61-6.33Z"/><path class="cls-3" d="M153.65,55.78h15.66v7.83Z"/><path class="cls-3" d="M168.55,45l-4.84,14.88,7.44,2.42Z"/><path class="cls-3" d="M168.55,45l4.84,14.88-7.45,2.42Z"/><path class="cls-3" d="M177.75,73.28l-12.67-9.2,4.6-6.33Z"/><path class="cls-3" d="M177.75,73.28,172.91,58.4l-7.45,2.42Z"/><path class="cls-3" d="M183.44,55.78,170.77,65l-4.6-6.33Z"/><path class="cls-3" d="M183.44,55.78H167.78v7.83Z"/><path class="cls-3" d="M143.35,107.65l-4.84-14.88-7.45,2.42Z"/><path class="cls-3" d="M143.35,107.65l-12.67-9.2,4.6-6.33Z"/><path class="cls-3" d="M124.94,107.65l12.67-9.2L133,92.12Z"/><path class="cls-3" d="M124.94,107.65l4.84-14.88,7.45,2.42Z"/><path class="cls-3" d="M119.25,90.15l12.67,9.2,4.6-6.33Z"/><path class="cls-3" d="M119.25,90.15h15.66V98Z"/><path class="cls-3" d="M149,90.15l-12.67,9.2L131.77,93Z"/><path class="cls-3" d="M149,90.15H133.38V98Z"/><path class="cls-3" d="M134.15,79.34,139,94.22l-7.45,2.42Z"/><path class="cls-3" d="M134.15,79.34l-4.84,14.88,7.44,2.42Z"/><path class="cls-3" d="M149,184.06H133.38v7.82Z"/><path class="cls-3" d="M149,184.06l-12.67,9.19-4.6-6.33Z"/><path class="cls-3" d="M143.35,201.55l-4.84-14.88-7.45,2.42Z"/><path class="cls-3" d="M143.35,201.55l-12.67-9.2,4.6-6.33Z"/><path class="cls-3" d="M124.94,201.55l12.67-9.2L133,186Z"/><path class="cls-3" d="M124.94,201.55l4.84-14.88,7.45,2.42Z"/><path class="cls-3" d="M134.15,173.24,139,188.13l-7.45,2.41Z"/><path class="cls-3" d="M134.15,173.24l-4.84,14.89,7.44,2.41Z"/><path class="cls-3" d="M119.25,184.06h15.66v7.82Z"/><path class="cls-3" d="M119.25,184.06l12.67,9.19,4.6-6.33Z"/><path class="cls-3" d="M183.44,218.43H167.78v7.82Z"/><path class="cls-3" d="M183.44,218.43l-12.67,9.19-4.6-6.33Z"/><path class="cls-3" d="M177.75,235.92,172.91,221l-7.45,2.42Z"/><path class="cls-3" d="M177.75,235.92l-12.67-9.2,4.6-6.33Z"/><path class="cls-3" d="M159.34,235.92l12.67-9.2-4.6-6.33Z"/><path class="cls-3" d="M159.34,235.92,164.18,221l7.45,2.42Z"/><path class="cls-3" d="M168.55,207.61l4.84,14.89-7.45,2.41Z"/><path class="cls-3" d="M168.55,207.61l-4.84,14.89,7.44,2.41Z"/><path class="cls-3" d="M153.65,218.43h15.66v7.82Z"/><path class="cls-3" d="M153.65,218.43l12.67,9.19,4.61-6.33Z"/></g><path class="cls-3" d="M309.52,126.29l4.85,14.89-7.45,2.41Z"/><path class="cls-3" d="M309.52,126.29l-4.84,14.89,7.45,2.41Z"/><path class="cls-3" d="M294.63,137.1h15.66v7.83Z"/><path class="cls-3" d="M294.63,137.1l12.67,9.2,4.6-6.33Z"/><path class="cls-3" d="M300.32,154.6l4.84-14.88,7.45,2.42Z"/><path class="cls-3" d="M300.32,154.6,313,145.4l-4.6-6.33Z"/><path class="cls-3" d="M324.42,137.1H308.76v7.83Z"/><path class="cls-3" d="M324.42,137.1l-12.67,9.2-4.6-6.33Z"/><path class="cls-3" d="M318.73,154.6l-4.84-14.88-7.45,2.42Z"/><path class="cls-3" d="M318.73,154.6l-12.67-9.2,4.6-6.33Z"/><path class="cls-3" d="M271.74,73.28l-12.67-9.2,4.6-6.33Z"/><path class="cls-3" d="M271.74,73.28,266.9,58.4l-7.45,2.42Z"/><path class="cls-3" d="M277.43,55.78,264.76,65l-4.61-6.33Z"/><path class="cls-3" d="M277.43,55.78H261.77v7.83Z"/><path class="cls-3" d="M262.53,45l4.84,14.88-7.45,2.42Z"/><path class="cls-3" d="M262.53,45l-4.84,14.88,7.45,2.42Z"/><path class="cls-3" d="M253.32,73.28,266,64.08l-4.61-6.33Z"/><path class="cls-3" d="M253.32,73.28l4.85-14.88,7.44,2.42Z"/><path class="cls-3" d="M247.63,55.78,260.31,65l4.6-6.33Z"/><path class="cls-3" d="M247.63,55.78H263.3v7.83Z"/><path class="cls-3" d="M287.73,107.65l4.84-14.88L300,95.19Z"/><path class="cls-3" d="M287.73,107.65l12.67-9.2-4.6-6.33Z"/><path class="cls-3" d="M306.14,107.65l-12.67-9.2,4.6-6.33Z"/><path class="cls-3" d="M306.14,107.65,301.3,92.77l-7.45,2.42Z"/><path class="cls-3" d="M311.83,90.15l-12.67,9.2L294.55,93Z"/><path class="cls-3" d="M311.83,90.15H296.17V98Z"/><path class="cls-3" d="M282,90.15l12.67,9.2,4.6-6.33Z"/><path class="cls-3" d="M282,90.15H297.7V98Z"/><path class="cls-3" d="M296.93,79.34l-4.84,14.88,7.45,2.42Z"/><path class="cls-3" d="M296.93,79.34l4.84,14.88-7.44,2.42Z"/><path class="cls-3" d="M282,184.06H297.7v7.82Z"/><path class="cls-3" d="M282,184.06l12.67,9.19,4.6-6.33Z"/><path class="cls-3" d="M287.73,201.55l4.84-14.88,7.45,2.42Z"/><path class="cls-3" d="M287.73,201.55l12.67-9.2L295.8,186Z"/><path class="cls-3" d="M306.14,201.55l-12.67-9.2,4.6-6.33Z"/><path class="cls-3" d="M306.14,201.55l-4.84-14.88-7.45,2.42Z"/><path class="cls-3" d="M296.93,173.24l-4.84,14.89,7.45,2.41Z"/><path class="cls-3" d="M296.93,173.24l4.84,14.89-7.44,2.41Z"/><path class="cls-3" d="M311.83,184.06H296.17v7.82Z"/><path class="cls-3" d="M311.83,184.06l-12.67,9.19-4.61-6.33Z"/><path class="cls-3" d="M247.63,218.43H263.3v7.82Z"/><path class="cls-3" d="M247.63,218.43l12.68,9.19,4.6-6.33Z"/><path class="cls-3" d="M253.32,235.92,258.17,221l7.44,2.42Z"/><path class="cls-3" d="M253.32,235.92l12.68-9.2-4.61-6.33Z"/><path class="cls-3" d="M271.74,235.92l-12.67-9.2,4.6-6.33Z"/><path class="cls-3" d="M271.74,235.92,266.9,221l-7.45,2.42Z"/><path class="cls-3" d="M262.53,207.61l-4.84,14.89,7.45,2.41Z"/><path class="cls-3" d="M262.53,207.61l4.84,14.89-7.45,2.41Z"/><path class="cls-3" d="M277.43,218.43H261.77v7.82Z"/><path class="cls-3" d="M277.43,218.43l-12.67,9.19-4.61-6.33Z"/></g></g></svg>