<svg xmlns="http://www.w3.org/2000/svg" viewBox="0 0 439.39 283.48"><defs><style>.cls-1{fill:#fff;}.cls-1,.cls-2,.cls-3{fill-rule:evenodd;}.cls-2{fill:#e60012;}.cls-3{fill:#fff100;}</style></defs><title>icon-flag-china</title><g id="图层_2" data-name="图层 2"><g id="图层_1-2" data-name="图层 1"><path class="cls-1" d="M1.84,281.71H437.55V1.73H1.84v280Zm436.63.9v0ZM0,283.48V0H439.39V283.48Z"/><polygon class="cls-2" points="438.48 282.61 0.92 282.61 0.92 0.88 438.48 0.88 438.48 282.61 438.48 282.61"/><polygon class="cls-3" points="74.21 32.68 83.44 60.13 113.33 60.13 89.16 77.12 98.36 104.58 74.21 87.59 50.01 104.58 59.24 77.12 35.07 60.13 64.96 60.13 74.21 32.68 74.21 32.68"/><polygon class="cls-3" points="152.1 18.35 151.49 27.84 160.61 31.34 151.09 33.69 150.44 43.18 145.19 35.14 135.67 37.49 141.95 30.18 136.69 22.16 145.82 25.67 152.1 18.35 152.1 18.35"/><polygon class="cls-3" points="185.68 49.11 181.2 57.57 188.14 64.3 178.44 62.78 173.93 71.25 172.43 61.87 162.71 60.36 171.46 56.07 169.97 46.69 176.89 53.41 185.68 49.11 185.68 49.11"/><polygon class="cls-3" points="175.6 87.61 178.59 96.65 188.46 96.67 180.48 102.24 183.51 111.29 175.58 105.69 167.59 111.27 170.65 102.24 162.71 96.65 172.53 96.67 175.6 87.61 175.6 87.61"/><polygon class="cls-3" points="152.05 116.61 151.4 126.09 160.54 129.61 151.01 131.95 150.37 141.44 145.12 133.41 135.58 135.75 141.86 128.45 136.61 120.4 145.75 123.94 152.05 116.61 152.05 116.61"/></g></g></svg>