<svg xmlns="http://www.w3.org/2000/svg" viewBox="0 0 439.39 283.48"><defs><style>.cls-1{fill:#fff;}.cls-1,.cls-2,.cls-3{fill-rule:evenodd;}.cls-2{fill:#003894;}.cls-3{fill:#e60012;}</style></defs><title>icon-flag-england</title><g id="图层_2" data-name="图层 2"><g id="图层_1-2" data-name="图层 1"><path class="cls-1" d="M1.82,281.72H437.58l0-280H1.82v280Zm436.66.89v0ZM0,283.48V0H439.39V283.48Z"/><polygon class="cls-2" points="438.48 282.59 0.92 282.59 0.92 0.87 438.48 0.87 438.48 282.59 438.48 282.59"/><polygon class="cls-1" points="438.48 99.48 263.46 99.48 263.46 0.87 175.94 0.87 175.94 99.48 0.92 99.48 0.92 184 175.94 184 175.94 282.59 263.46 282.59 263.46 184 438.48 184 438.48 99.48 438.48 99.48"/><polygon class="cls-1" points="438.48 250.24 51.13 0.87 0.92 0.87 0.92 33.49 387.89 282.59 438.48 282.59 438.48 250.24 438.48 250.24"/><polygon class="cls-1" points="0.92 250.24 388.27 0.87 438.48 0.87 438.48 33.49 51.51 282.59 0.92 282.59 0.92 250.24 0.92 250.24"/><polygon class="cls-3" points="438.48 117.08 245.22 117.08 245.22 0.87 194.17 0.87 194.17 117.08 0.92 117.08 0.92 166.38 194.17 166.38 194.17 282.59 245.22 282.59 245.22 166.38 438.48 166.38 438.48 117.08 438.48 117.08"/><polygon class="cls-3" points="438.48 281.78 438.48 259.51 320.88 184 286.24 184 438.48 281.78 438.48 281.78"/><polygon class="cls-3" points="438.48 0.87 403.88 0.87 263.46 91.07 263.46 99.48 285.02 99.48 438.48 0.89 438.48 0.87 438.48 0.87"/><polygon class="cls-3" points="153.21 184 0.92 281.81 0.92 282.59 34.33 282.59 175.94 191.62 175.94 184 153.21 184 153.21 184"/><polygon class="cls-3" points="0.92 1.05 0.92 23.3 119.5 99.48 154.14 99.48 0.92 1.05 0.92 1.05"/></g></g></svg>