<svg xmlns="http://www.w3.org/2000/svg" viewBox="0 0 439.4 283.49"><defs><style>.cls-1{fill:#fff;}.cls-1,.cls-2,.cls-3{fill-rule:evenodd;}.cls-2{fill:#e60012;}.cls-3{fill:#005bac;}</style></defs><title>icon-flag-usa</title><g id="图层_2" data-name="图层 2"><g id="图层_1-2" data-name="图层 1"><path class="cls-1" d="M1.82,281.73H437.57V1.73H1.82v280Zm436.68.89v0ZM0,283.49V0H439.4V283.49Z"/><polygon class="cls-1" points="0.92 217.6 438.5 217.6 438.5 195.92 0.92 195.92 0.92 217.6 0.92 217.6"/><polygon class="cls-2" points="0.92 195.92 438.5 195.92 438.5 174.24 0.92 174.24 0.92 195.92 0.92 195.92"/><polygon class="cls-1" points="0.92 260.94 438.5 260.94 438.5 239.26 0.92 239.26 0.92 260.94 0.92 260.94"/><polygon class="cls-2" points="0.92 282.62 438.5 282.62 438.5 260.94 0.92 260.94 0.92 282.62 0.92 282.62"/><polygon class="cls-2" points="0.92 239.26 438.5 239.26 438.5 217.6 0.92 217.6 0.92 239.26 0.92 239.26"/><polygon class="cls-1" points="0.92 174.24 438.5 174.24 438.5 152.58 0.92 152.58 0.92 174.24 0.92 174.24"/><polygon class="cls-2" points="0.92 109.22 438.5 109.22 438.5 87.56 0.92 87.56 0.92 109.22 0.92 109.22"/><polygon class="cls-1" points="438.5 22.53 0.92 22.53 0.92 44.2 438.5 44.2 438.5 22.53 438.5 22.53"/><polygon class="cls-2" points="0.92 44.2 0.92 65.89 438.5 65.89 438.5 44.2 0.92 44.2 0.92 44.2"/><polygon class="cls-2" points="0.92 152.58 438.5 152.58 438.5 130.88 0.92 130.88 0.92 152.58 0.92 152.58"/><polygon class="cls-2" points="438.5 0.89 0.92 0.89 0.92 22.53 438.5 22.53 438.5 0.89 438.5 0.89"/><polygon class="cls-1" points="0.92 87.56 438.5 87.56 438.5 65.89 0.92 65.89 0.92 87.56 0.92 87.56"/><polygon class="cls-1" points="0.92 130.88 438.5 130.88 438.5 109.22 0.92 109.22 0.92 130.88 0.92 130.88"/><polygon class="cls-3" points="175.95 152.75 0.92 152.75 0.92 0.89 175.95 0.89 175.95 152.75 175.95 152.75"/><polygon class="cls-1" points="132.38 9 133.58 12.6 137.49 12.6 134.33 14.81 135.55 18.41 132.38 16.18 129.2 18.41 130.42 14.81 127.26 12.6 131.16 12.6 132.38 9 132.38 9"/><polygon class="cls-1" points="132.38 40.55 133.58 44.14 137.49 44.14 134.33 46.36 135.55 49.95 132.38 47.76 129.2 49.95 130.42 46.36 127.26 44.14 131.16 44.14 132.38 40.55 132.38 40.55"/><polygon class="cls-1" points="132.38 72.12 133.58 75.71 137.49 75.71 134.33 77.93 135.55 81.52 132.38 79.3 129.2 81.52 130.42 77.93 127.26 75.71 131.16 75.71 132.38 72.12 132.38 72.12"/><polygon class="cls-1" points="132.38 104.38 133.58 107.99 137.49 107.99 134.33 110.22 135.55 113.83 132.38 111.59 129.2 113.83 130.42 110.22 127.26 107.99 131.16 107.99 132.38 104.38 132.38 104.38"/><polygon class="cls-1" points="132.38 135.21 133.58 138.81 137.49 138.81 134.33 141.05 135.55 144.64 132.38 142.4 129.2 144.64 130.42 141.05 127.26 138.81 131.16 138.81 132.38 135.21 132.38 135.21"/><polygon class="cls-1" points="103.08 9 104.28 12.6 108.21 12.6 105.03 14.81 106.24 18.41 103.08 16.18 99.91 18.41 101.11 14.81 97.95 12.6 101.87 12.6 103.08 9 103.08 9"/><polygon class="cls-1" points="103.08 40.55 104.28 44.14 108.21 44.14 105.03 46.36 106.24 49.95 103.08 47.76 99.91 49.95 101.11 46.36 97.95 44.14 101.87 44.14 103.08 40.55 103.08 40.55"/><polygon class="cls-1" points="103.08 72.12 104.28 75.71 108.21 75.71 105.03 77.93 106.24 81.52 103.08 79.3 99.91 81.52 101.11 77.93 97.95 75.71 101.87 75.71 103.08 72.12 103.08 72.12"/><polygon class="cls-1" points="103.08 104.38 104.28 107.99 108.21 107.99 105.03 110.22 106.24 113.83 103.08 111.59 99.91 113.83 101.11 110.22 97.95 107.99 101.87 107.99 103.08 104.38 103.08 104.38"/><polygon class="cls-1" points="103.08 135.21 104.28 138.81 108.21 138.81 105.03 141.05 106.24 144.64 103.08 142.4 99.91 144.64 101.11 141.05 97.95 138.81 101.87 138.81 103.08 135.21 103.08 135.21"/><polygon class="cls-1" points="73.8 9 74.99 12.6 78.9 12.6 75.74 14.81 76.96 18.41 73.8 16.18 70.61 18.41 71.83 14.81 68.67 12.6 72.57 12.6 73.8 9 73.8 9"/><polygon class="cls-1" points="73.8 40.55 74.99 44.14 78.9 44.14 75.74 46.36 76.96 49.95 73.8 47.76 70.61 49.95 71.83 46.36 68.67 44.14 72.57 44.14 73.8 40.55 73.8 40.55"/><polygon class="cls-1" points="73.8 72.12 74.99 75.71 78.9 75.71 75.74 77.93 76.96 81.52 73.8 79.3 70.61 81.52 71.83 77.93 68.67 75.71 72.57 75.71 73.8 72.12 73.8 72.12"/><polygon class="cls-1" points="73.8 104.38 74.99 107.99 78.9 107.99 75.74 110.22 76.96 113.83 73.8 111.59 70.61 113.83 71.83 110.22 68.67 107.99 72.57 107.99 73.8 104.38 73.8 104.38"/><polygon class="cls-1" points="73.8 135.21 74.99 138.81 78.9 138.81 75.74 141.05 76.96 144.64 73.8 142.4 70.61 144.64 71.83 141.05 68.67 138.81 72.57 138.81 73.8 135.21 73.8 135.21"/><polygon class="cls-1" points="44.48 9 45.69 12.6 49.61 12.6 46.45 14.81 47.66 18.41 44.48 16.18 41.32 18.41 42.53 14.81 39.36 12.6 43.26 12.6 44.48 9 44.48 9"/><polygon class="cls-1" points="44.48 40.55 45.69 44.14 49.61 44.14 46.45 46.36 47.66 49.95 44.48 47.76 41.32 49.95 42.53 46.36 39.36 44.14 43.26 44.14 44.48 40.55 44.48 40.55"/><polygon class="cls-1" points="44.48 72.12 45.69 75.71 49.61 75.71 46.45 77.93 47.66 81.52 44.48 79.3 41.32 81.52 42.53 77.93 39.36 75.71 43.26 75.71 44.48 72.12 44.48 72.12"/><polygon class="cls-1" points="44.48 104.38 45.69 107.99 49.61 107.99 46.45 110.22 47.66 113.83 44.48 111.59 41.32 113.83 42.53 110.22 39.36 107.99 43.26 107.99 44.48 104.38 44.48 104.38"/><polygon class="cls-1" points="44.48 135.21 45.69 138.81 49.61 138.81 46.45 141.05 47.66 144.64 44.48 142.4 41.32 144.64 42.53 141.05 39.36 138.81 43.26 138.81 44.48 135.21 44.48 135.21"/><polygon class="cls-1" points="15.19 9 16.41 12.6 20.3 12.6 17.15 14.81 18.35 18.41 15.19 16.18 12.02 18.41 13.22 14.81 10.06 12.6 13.98 12.6 15.19 9 15.19 9"/><polygon class="cls-1" points="15.19 40.55 16.41 44.14 20.3 44.14 17.15 46.36 18.35 49.95 15.19 47.76 12.02 49.95 13.22 46.36 10.06 44.14 13.98 44.14 15.19 40.55 15.19 40.55"/><polygon class="cls-1" points="15.19 72.12 16.41 75.71 20.3 75.71 17.15 77.93 18.35 81.52 15.19 79.3 12.02 81.52 13.22 77.93 10.06 75.71 13.98 75.71 15.19 72.12 15.19 72.12"/><polygon class="cls-1" points="15.19 104.38 16.41 107.99 20.3 107.99 17.15 110.22 18.35 113.83 15.19 111.59 12.02 113.83 13.22 110.22 10.06 107.99 13.98 107.99 15.19 104.38 15.19 104.38"/><polygon class="cls-1" points="15.19 135.21 16.41 138.81 20.3 138.81 17.15 141.05 18.35 144.64 15.19 142.4 12.02 144.64 13.22 141.05 10.06 138.81 13.98 138.81 15.19 135.21 15.19 135.21"/><polygon class="cls-1" points="147.32 24.76 148.52 28.38 152.44 28.38 149.27 30.58 150.48 34.19 147.32 31.97 144.14 34.19 145.36 30.58 142.19 28.38 146.1 28.38 147.32 24.76 147.32 24.76"/><polygon class="cls-1" points="147.32 57.34 148.52 60.94 152.44 60.94 149.27 63.16 150.48 66.75 147.32 64.53 144.14 66.75 145.36 63.16 142.19 60.94 146.1 60.94 147.32 57.34 147.32 57.34"/><polygon class="cls-1" points="147.01 89.28 148.22 92.87 152.15 92.87 148.98 95.09 150.19 98.68 147.01 96.44 143.86 98.68 145.06 95.09 141.89 92.87 145.81 92.87 147.01 89.28 147.01 89.28"/><polygon class="cls-1" points="146.73 120.82 147.94 124.42 151.86 124.42 148.68 126.63 149.9 130.23 146.73 128.01 143.57 130.23 144.78 126.63 141.6 124.42 145.52 124.42 146.73 120.82 146.73 120.82"/><polygon class="cls-1" points="118.02 24.76 119.22 28.38 123.14 28.38 119.97 30.58 121.18 34.19 118.02 31.97 114.84 34.19 116.06 30.58 112.9 28.38 116.81 28.38 118.02 24.76 118.02 24.76"/><polygon class="cls-1" points="118.02 57.34 119.22 60.94 123.14 60.94 119.97 63.16 121.18 66.75 118.02 64.53 114.84 66.75 116.06 63.16 112.9 60.94 116.81 60.94 118.02 57.34 118.02 57.34"/><polygon class="cls-1" points="117.72 89.28 118.93 92.87 122.85 92.87 119.69 95.09 120.9 98.68 117.72 96.44 114.56 98.68 115.77 95.09 112.59 92.87 116.51 92.87 117.72 89.28 117.72 89.28"/><polygon class="cls-1" points="117.43 120.82 118.64 124.42 122.56 124.42 119.39 126.63 120.6 130.23 117.43 128.01 114.26 130.23 115.47 126.63 112.31 124.42 116.22 124.42 117.43 120.82 117.43 120.82"/><polygon class="cls-1" points="88.71 23.65 89.93 27.23 93.83 27.23 90.68 29.46 91.89 33.05 88.71 30.83 85.55 33.05 86.76 29.46 83.59 27.23 87.5 27.23 88.71 23.65 88.71 23.65"/><polygon class="cls-1" points="88.71 56.21 89.93 59.8 93.83 59.8 90.68 62.04 91.89 65.61 88.71 63.41 85.55 65.61 86.76 62.04 83.59 59.8 87.5 59.8 88.71 56.21 88.71 56.21"/><polygon class="cls-1" points="88.43 88.13 89.63 91.73 93.55 91.73 90.37 93.95 91.59 97.54 88.43 95.32 85.25 97.54 86.47 93.95 83.3 91.73 87.22 91.73 88.43 88.13 88.43 88.13"/><polygon class="cls-1" points="88.14 119.7 89.34 123.3 93.26 123.3 90.1 125.49 91.3 129.11 88.14 126.89 84.97 129.11 86.17 125.49 83.01 123.3 86.91 123.3 88.14 119.7 88.14 119.7"/><polygon class="cls-1" points="59.43 23.33 60.64 26.92 64.56 26.92 61.38 29.16 62.59 32.75 59.43 30.51 56.26 32.75 57.47 29.16 54.3 26.92 58.22 26.92 59.43 23.33 59.43 23.33"/><polygon class="cls-1" points="59.43 55.89 60.64 59.48 64.56 59.48 61.38 61.72 62.59 65.31 59.43 63.07 56.26 65.31 57.47 61.72 54.3 59.48 58.22 59.48 59.43 55.89 59.43 55.89"/><polygon class="cls-1" points="59.14 87.81 60.34 91.41 64.26 91.41 61.09 93.65 62.3 97.24 59.14 95 55.97 97.24 57.17 93.65 54.01 91.41 57.92 91.41 59.14 87.81 59.14 87.81"/><polygon class="cls-1" points="58.84 119.36 60.06 122.96 63.97 122.96 60.8 125.2 62 128.79 58.84 126.55 55.68 128.79 56.88 125.2 53.71 122.96 57.63 122.96 58.84 119.36 58.84 119.36"/><polygon class="cls-1" points="30.12 22.75 31.33 26.35 35.25 26.35 32.08 28.59 33.28 32.16 30.12 29.94 26.95 32.16 28.16 28.59 24.99 26.35 28.91 26.35 30.12 22.75 30.12 22.75"/><polygon class="cls-1" points="30.12 55.32 31.33 58.91 35.25 58.91 32.08 61.15 33.28 64.72 30.12 62.53 26.95 64.72 28.16 61.15 24.99 58.91 28.91 58.91 30.12 55.32 30.12 55.32"/><polygon class="cls-1" points="29.82 87.27 31.04 90.86 34.95 90.86 31.78 93.08 33 96.67 29.82 94.45 26.66 96.67 27.87 93.08 24.7 90.86 28.62 90.86 29.82 87.27 29.82 87.27"/><polygon class="cls-1" points="29.55 118.82 30.74 122.41 34.66 122.41 31.49 124.63 32.71 128.22 29.55 126 26.36 128.22 27.58 124.63 24.42 122.41 28.33 122.41 29.55 118.82 29.55 118.82"/><polygon class="cls-1" points="161.68 9 162.87 12.6 166.79 12.6 163.63 14.81 164.83 18.41 161.68 16.18 158.5 18.41 159.71 14.81 156.55 12.6 160.46 12.6 161.68 9 161.68 9"/><polygon class="cls-1" points="161.68 40.55 162.87 44.14 166.79 44.14 163.63 46.36 164.83 49.95 161.68 47.76 158.5 49.95 159.71 46.36 156.55 44.14 160.46 44.14 161.68 40.55 161.68 40.55"/><polygon class="cls-1" points="161.68 72.12 162.87 75.71 166.79 75.71 163.63 77.93 164.83 81.52 161.68 79.3 158.5 81.52 159.71 77.93 156.55 75.71 160.46 75.71 161.68 72.12 161.68 72.12"/><polygon class="cls-1" points="161.68 104.38 162.87 107.99 166.79 107.99 163.63 110.22 164.83 113.83 161.68 111.59 158.5 113.83 159.71 110.22 156.55 107.99 160.46 107.99 161.68 104.38 161.68 104.38"/><polygon class="cls-1" points="161.68 135.21 162.87 138.81 166.79 138.81 163.63 141.05 164.83 144.64 161.68 142.4 158.5 144.64 159.71 141.05 156.55 138.81 160.46 138.81 161.68 135.21 161.68 135.21"/></g></g></svg>